# xmcd
#
# Track frame offsets: 
#        150
#        11123
#        23075
#        34005
#        51300
#        66888
#        80098
#        96113
#        106353
#        119485
#
# Disc length: 1770 seconds
#
# Revision: 7
# Processed by: cddbd v1.5.2PL0 Copyright (c) Steve Scherf et al.
# Submitted via: ExactAudioCopy v0.99pb3
#
DISCID=8306e80a
DTITLE=Crystal Gayle - Classic Crystal
DYEAR=1979
DGENRE=Country
TTITLE0=Somebody Loves You
TTITLE1=Don't It Make My Brown Eyes Blue
TTITLE2=Ready For The Times to Get Better
TTITLE3=You Never Miss A Real Good Thing ('Till He Says Goodbye)
TTITLE4=When I Dream
TTITLE5=I'll Do It All Over Again
TTITLE6=I'll Get Over You
TTITLE7=Wrong Road Again
TTITLE8=Talking in Your Sleep
TTITLE9=Why Have You Left The One You Left Me For
EXTD=
EXTT0=
EXTT1=
EXTT2=
EXTT3=
EXTT4=
EXTT5=
EXTT6=
EXTT7=
EXTT8=
EXTT9=
PLAYORDER=
